<svg width="602" height="487" viewBox="0 0 602 487" fill="none" xmlns="http://www.w3.org/2000/svg">
<path d="M580.335 400.142H28.1505C16.3414 400.142 6.73352 390.833 6.73352 379.389V314.99H601.752V379.389C601.752 390.833 592.144 400.142 580.335 400.142V400.142Z" fill="#F5F5F5"/>
<path d="M375.708 389.37H234.894V486.834H375.708V389.37Z" fill="#F5F5F5"/>
<path d="M384.178 474.523H226.424V486.834H384.178V474.523Z" fill="#F5F5F5"/>
<path d="M601.222 342.178H6.73352V14.7846C6.73352 6.93187 13.3269 0.542847 21.4309 0.542847H586.525C594.629 0.542847 601.222 6.93187 601.222 14.7846V342.178V342.178Z" fill="#002D40"/>
<path d="M305.301 12.341C307.64 12.341 309.536 10.5037 309.536 8.23726C309.536 5.97084 307.64 4.13354 305.301 4.13354C302.962 4.13354 301.066 5.97084 301.066 8.23726C301.066 10.5037 302.962 12.341 305.301 12.341Z" fill="white"/>
<path d="M586.929 15.4188H20.4974V324.224H586.929V15.4188Z" fill="#D9ECF2"/>
<path d="M520.636 248.726C547.308 248.726 568.93 227.775 568.93 201.929C568.93 176.084 547.308 155.132 520.636 155.132C493.964 155.132 472.342 176.084 472.342 201.929C472.342 227.775 493.964 248.726 520.636 248.726Z" fill="#0093E1"/>
<path d="M33.1313 195.123L27.0291 215.819L51.4379 217.297L49.9123 192.906L33.1313 195.123Z" fill="#FFB6B6"/>
<path d="M134.535 279.607C140.328 281.523 146.043 280.18 147.301 276.608C148.559 273.036 144.883 268.588 139.088 266.671C136.784 265.875 134.317 265.625 131.893 265.942L107.245 258.124L103.705 269.41L128.38 275.92C130.098 277.607 132.209 278.872 134.535 279.607V279.607Z" fill="#FFB6B6"/>
<path d="M52.7458 211.229C52.7458 211.229 37.4668 229.041 46.306 236.41C55.1451 243.78 94.6182 271.061 94.6182 271.061L110.007 273.383L113.942 258.969L79.1945 234.019L52.7458 211.229H52.7458Z" fill="#0093E1"/>
<path d="M93.2294 400.841L101.721 431.333L115.207 428.913L112.21 397.453L93.2294 400.841Z" fill="#FFB6B6"/>
<path d="M103.719 429.396L98.7237 430.364L94.7278 443.432C94.7278 443.432 101.221 445.852 101.221 450.692C101.221 455.532 103.718 458.92 113.708 458.436C123.698 457.952 124.697 458.436 124.697 454.564C124.697 450.692 117.205 430.364 117.205 430.364C117.205 430.364 117.704 422.136 111.71 422.62C105.716 423.104 103.718 429.396 103.718 429.396H103.719Z" fill="#002D40"/>
<path d="M47.5686 400.366L48.148 431.944L61.8364 432.776L66.8293 401.555L47.5686 400.366Z" fill="#FFB6B6"/>
<path d="M50.572 430.537L45.4842 430.298L38.327 442.031C38.327 442.031 44.0175 445.91 42.8022 450.604C41.5868 455.299 43.1584 459.174 52.9694 461.059C62.7804 462.945 63.6278 463.65 64.6001 459.895C65.5724 456.139 63.4097 434.655 63.4097 434.655C63.4097 434.655 65.9602 426.793 60.025 425.849C54.0898 424.905 50.572 430.537 50.572 430.537V430.537Z" fill="#002D40"/>
<path d="M53.2707 211.596L26.2986 209.66L20.3048 216.92C20.3048 216.92 17.3079 265.804 19.3058 270.644C21.3037 275.484 19.8053 303.072 19.8053 303.072L87.8 298.474L72.7506 263.384L73.25 243.056L59.764 218.372L53.2707 211.596L53.2707 211.596Z" fill="#0093E1"/>
<path d="M22.8022 292.908C22.8022 292.908 11.8135 308.396 15.8094 316.624C19.8053 324.852 46.9096 372.627 46.9096 372.627L43.4133 417.155L67.3885 415.219L71.3843 367.303L54.7691 328.24L57.766 323.884L82.7402 353.408L91.7309 404.712L115.706 401.809L102.72 326.788L87.5422 297.874L22.8022 292.908H22.8022Z" fill="#002D40"/>
<path d="M20.4544 181.956C25.5687 181.956 29.7147 177.939 29.7147 172.983C29.7147 168.027 25.5687 164.01 20.4544 164.01C15.3402 164.01 11.1942 168.027 11.1942 172.983C11.1942 177.939 15.3402 181.956 20.4544 181.956Z" fill="#002D40"/>
<path d="M41.8398 206.249C52.9775 206.249 62.0064 197.5 62.0064 186.707C62.0064 175.915 52.9775 167.166 41.8398 167.166C30.7021 167.166 21.6732 175.915 21.6732 186.707C21.6732 197.5 30.7021 206.249 41.8398 206.249Z" fill="#FFB6B6"/>
<path d="M35.4457 208.131C33.3023 209.231 27.2712 205.192 25.1133 199.78C23.7251 196.298 20.35 196.877 18.1963 192.535C16.9414 190.004 20.6888 187.529 20.0707 185.341C18.9508 181.378 20.3548 177.831 20.5337 177.397C22.0779 173.646 24.3542 173.734 26.1897 169.368C27.2948 166.74 26.5859 166.432 27.5148 165.088C30.1956 161.208 37.9739 161.06 43.4599 162.895C45.3583 163.53 49.9311 160.128 53.6432 162.592C58.0166 165.497 60.9261 173.868 60.2567 175.402C59.85 176.333 57.5857 175.384 52.8767 176.101C48.5169 176.765 54.2711 179.922 49.3646 180.998C43.5626 182.27 41.8148 181.109 40.2069 182.887C38.5072 184.768 38.1929 188.573 39.7439 190.832C40.5135 191.953 41.5059 192.349 41.3816 193.129C41.1546 194.553 39.849 193.779 39.4208 195.29C38.9227 197.048 43.0554 199.352 42.6962 199.883C42.6238 199.991 42.3143 200.107 38.2789 198.599C36.6675 197.998 36.0462 197.478 35.8655 197.67C35.5729 197.982 34.1241 201.102 35.7703 202.43C38.3322 204.495 36.5566 205.316 37.7245 206.933C38.9293 208.602 36.8078 207.432 35.4457 208.131V208.131Z" fill="#002D40"/>
<path d="M40.1676 321.039C43.386 326.083 48.681 328.563 51.9938 326.578C55.3066 324.593 55.3824 318.895 52.1622 313.849C50.9043 311.816 49.1624 310.105 47.0821 308.858L33.167 287.651L23.0358 294.19L37.8292 314.403C38.0506 316.764 38.8524 319.04 40.1676 321.039V321.039Z" fill="#FFB6B6"/>
<path d="M21.8032 217.888C21.8032 217.888 -1.67257 222.244 0.32537 233.376C2.32331 244.508 14.9345 289.873 14.9345 289.873L25.2996 301.136L37.7866 292.424L27.2975 251.768L21.8032 217.888V217.888Z" fill="#0093E1"/>
<path d="M576.294 227.185C575.371 225.676 571.377 227.292 570.643 225.923C569.911 224.559 573.622 222.48 575.742 217.733C576.124 216.876 578.533 211.481 576.75 209.816C573.369 206.661 557.899 219.683 552.486 215.422C551.298 214.486 550.468 212.619 546.872 209.588C545.441 208.382 544.576 207.838 543.739 208.04C542.551 208.328 542.457 209.868 541.183 212.897C539.273 217.44 538.143 217.165 537.03 220.789C536.204 223.48 536.393 225.044 535.421 225.349C534.045 225.78 532.779 222.926 531.035 223.182C529.256 223.443 528.18 226.765 527.84 229.253C527.203 233.921 528.972 237.002 529.953 240.241C531.018 243.761 531.651 249.114 529.19 256.693L504.831 323.196C510.209 309.549 525.78 272.142 532.322 258.241C534.211 254.228 536.297 250.157 540.579 248.551C544.702 247.004 550.364 247.928 557.582 246.243C558.425 246.046 560.764 245.469 561.059 244.136C561.302 243.034 559.926 242.418 560.138 241.386C560.421 240.001 563.127 239.984 566.453 238.386C568.797 237.26 570.258 235.92 571.514 234.768C571.893 234.42 577.523 229.193 576.294 227.185H576.294L576.294 227.185Z" fill="#D9ECF2"/>
<path d="M480.46 262.195C479.43 262.198 479.096 264.564 478.191 264.518C477.289 264.473 477.307 262.108 475.513 259.73C475.19 259.301 473.152 256.599 471.795 256.966C469.221 257.664 471.353 268.778 467.633 270.123C466.816 270.419 465.631 270.275 463.058 271.11C462.035 271.443 461.509 271.697 461.37 272.154C461.173 272.801 461.926 273.291 463.093 274.77C464.843 276.989 464.378 277.448 465.892 279.023C467.017 280.192 467.863 280.553 467.737 281.104C467.559 281.883 465.748 281.661 465.374 282.564C464.993 283.486 466.365 284.956 467.527 285.835C469.708 287.486 471.779 287.533 473.702 288.001C475.793 288.51 478.687 289.754 481.815 293.111L508.471 323.884C503.111 317.389 488.656 299.19 483.503 292.068C482.016 290.012 480.556 287.845 480.978 285.345C481.384 282.938 483.485 280.512 484.714 276.593C484.858 276.135 485.241 274.856 484.65 274.331C484.162 273.897 483.454 274.374 482.992 273.976C482.372 273.441 483.144 272.149 483.294 270.107C483.4 268.667 483.143 267.585 482.922 266.656C482.855 266.375 481.832 262.189 480.46 262.195V262.195V262.195Z" fill="#D9ECF2"/>
<path d="M501.016 266.666L500.396 261.296L500.679 260.889C501.992 259.007 502.661 257.168 502.669 255.423C502.67 255.146 502.657 254.868 502.643 254.586C502.59 253.466 502.523 252.073 503.272 250.45C503.692 249.545 504.872 247.45 506.646 247.709C507.124 247.774 507.485 247.987 507.759 248.236C507.8 248.174 507.841 248.111 507.885 248.044C508.438 247.227 508.875 246.877 509.297 246.54C509.621 246.281 509.955 246.014 510.479 245.381C510.71 245.104 510.889 244.86 511.04 244.655C511.499 244.035 512.098 243.296 513.155 243.309C514.284 243.361 514.876 244.266 515.268 244.865C515.968 245.933 516.285 246.703 516.495 247.214C516.571 247.401 516.658 247.611 516.702 247.676C517.066 248.194 520.024 247.709 521.139 247.533C523.642 247.129 525.808 246.779 526.7 248.308C527.34 249.403 526.865 250.849 525.246 252.724C524.742 253.307 524.205 253.751 523.729 254.098C524.124 254.326 524.477 254.676 524.62 255.226C524.957 256.528 523.802 257.832 521.19 259.108C520.541 259.427 519.667 259.852 518.443 260.057C517.866 260.153 517.347 260.176 516.903 260.189C516.893 260.438 516.833 260.708 516.677 260.985C516.218 261.802 515.263 262.191 513.823 262.097C512.239 262.017 510.934 261.724 509.784 261.467C508.779 261.244 507.913 261.055 507.234 261.099C505.973 261.198 505.002 262.175 503.862 263.443L501.016 266.666H501.016V266.666Z" fill="#D9ECF2"/>
<path d="M503.896 234.694L498.693 236.638L498.215 236.475C496.003 235.722 493.998 235.562 492.254 235.997C491.977 236.066 491.703 236.149 491.424 236.233C490.32 236.567 488.947 236.983 487.137 236.693C486.127 236.528 483.736 235.954 483.545 234.225C483.488 233.761 483.609 233.368 483.788 233.048C483.716 233.026 483.643 233.003 483.564 232.979C482.609 232.668 482.149 232.347 481.705 232.037C481.364 231.8 481.013 231.554 480.248 231.223C479.913 231.077 479.624 230.971 479.381 230.881C478.646 230.609 477.757 230.234 477.501 229.24C477.267 228.169 478.02 227.385 478.519 226.865C479.407 225.939 480.096 225.446 480.552 225.12C480.719 225.001 480.907 224.866 480.961 224.808C481.386 224.335 480.152 221.686 479.693 220.686C478.654 218.442 477.755 216.501 479.056 215.276C479.986 214.399 481.551 214.477 483.833 215.519C484.543 215.844 485.122 216.234 485.59 216.593C485.717 216.165 485.977 215.745 486.489 215.472C487.703 214.825 489.298 215.577 491.234 217.702C491.717 218.23 492.363 218.941 492.878 220.036C493.12 220.552 493.275 221.033 493.401 221.446C493.652 221.392 493.936 221.38 494.253 221.456C495.185 221.679 495.815 222.476 496.087 223.849C496.409 225.354 496.447 226.651 496.483 227.795C496.515 228.793 496.546 229.652 496.762 230.278C497.18 231.435 498.402 232.097 499.957 232.844L503.896 234.694L503.896 234.694V234.694Z" fill="#D9ECF2"/>
<path d="M501.016 218.874L500.396 213.504L500.679 213.097C501.992 211.214 502.661 209.376 502.669 207.631C502.67 207.354 502.657 207.076 502.643 206.794C502.59 205.673 502.523 204.281 503.272 202.658C503.692 201.753 504.872 199.658 506.646 199.917C507.124 199.982 507.485 200.195 507.759 200.444C507.8 200.381 507.841 200.319 507.885 200.252C508.438 199.435 508.875 199.085 509.297 198.748C509.621 198.488 509.955 198.221 510.479 197.589C510.71 197.311 510.889 197.068 511.04 196.863C511.499 196.243 512.098 195.504 513.155 195.517C514.284 195.569 514.876 196.474 515.268 197.073C515.968 198.141 516.285 198.911 516.495 199.422C516.571 199.609 516.658 199.819 516.702 199.883C517.066 200.402 520.024 199.917 521.139 199.741C523.642 199.336 525.808 198.986 526.7 200.516C527.34 201.61 526.865 203.057 525.246 204.932C524.742 205.515 524.205 205.959 523.729 206.306C524.124 206.534 524.477 206.884 524.62 207.434C524.957 208.736 523.802 210.04 521.19 211.316C520.541 211.634 519.667 212.06 518.443 212.265C517.866 212.36 517.347 212.384 516.903 212.397C516.893 212.646 516.833 212.915 516.677 213.193C516.218 214.01 515.263 214.398 513.823 214.305C512.239 214.225 510.934 213.932 509.784 213.675C508.779 213.452 507.913 213.263 507.234 213.307C505.973 213.405 505.002 214.383 503.862 215.651L501.016 218.874H501.016V218.874Z" fill="#D9ECF2"/>
<path d="M506.686 323.108L505.525 322.403L505.244 321.104L505.525 322.403L504.171 322.553C504.15 322.431 504.076 322.151 503.965 321.713C503.359 319.312 501.511 312.005 499.97 300.498C498.894 292.465 498.286 284.207 498.16 275.948C498.034 267.677 498.438 261.415 498.762 256.383C499.007 252.587 499.304 248.972 499.595 245.451C500.371 236.044 501.103 227.158 500.559 217.321C500.438 215.124 500.185 210.553 497.429 205.689C495.83 202.868 493.628 200.363 490.883 198.247L492.59 196.168C495.62 198.507 498.057 201.281 499.832 204.413C502.888 209.806 503.164 214.787 503.296 217.181C503.85 227.192 503.11 236.163 502.326 245.661C502.037 249.169 501.74 252.768 501.497 256.549C501.175 261.535 500.775 267.742 500.9 275.907C501.023 284.067 501.625 292.224 502.686 300.156C504.209 311.518 506.029 318.716 506.628 321.08C506.946 322.343 507.013 322.608 506.686 323.108V323.108V323.108Z" fill="#D9ECF2"/>
<path d="M485.858 202.466C485.745 202.466 485.632 202.463 485.517 202.456C483.183 202.334 481.023 200.98 479.093 198.434C478.189 197.236 477.726 195.87 476.803 193.145C476.66 192.725 475.964 190.593 475.541 187.661C475.264 185.744 475.299 184.943 475.691 184.235C476.126 183.447 476.83 182.897 477.622 182.527C477.587 182.273 477.615 182.011 477.729 181.744C478.195 180.636 479.437 180.782 480.109 180.852C480.449 180.893 480.873 180.948 481.33 180.924C482.05 180.891 482.437 180.683 483.023 180.372C483.583 180.074 484.28 179.703 485.315 179.498C487.354 179.086 489.062 179.646 489.625 179.83C492.589 180.787 494.05 183.019 495.741 185.604C496.078 186.123 497.235 188.011 497.999 190.598C498.551 192.465 498.473 193.295 498.307 193.912C497.97 195.18 497.174 195.906 495.152 197.508C493.041 199.186 491.981 200.026 491.072 200.537C488.954 201.722 487.624 202.466 485.858 202.466V202.466V202.466Z" fill="#D9ECF2"/>
<path d="M364.977 276.213H149.98C141.325 276.213 134.284 269.389 134.284 261.003V103.469C134.284 95.0833 141.325 88.2598 149.98 88.2598H364.976C373.632 88.2598 380.673 95.0833 380.673 103.469V261.003C380.673 269.389 373.632 276.213 364.976 276.213H364.977Z" fill="white"/>
<path d="M364.977 276.213H149.98C141.325 276.213 134.284 269.389 134.284 261.003V103.469C134.284 95.0833 141.325 88.2598 149.98 88.2598H364.976C373.632 88.2598 380.673 95.0833 380.673 103.469V261.003C380.673 269.389 373.632 276.213 364.976 276.213H364.977ZM149.98 90.7997C142.77 90.7997 136.905 96.4835 136.905 103.469V261.003C136.905 267.989 142.77 273.673 149.98 273.673H364.976C372.186 273.673 378.052 267.989 378.052 261.003V103.469C378.052 96.4835 372.186 90.7997 364.976 90.7997H149.98V90.7997Z" fill="#002D40"/>
<path d="M341.355 107.309C343.527 107.309 345.287 105.603 345.287 103.499C345.287 101.395 343.527 99.6893 341.355 99.6893C339.184 99.6893 337.424 101.395 337.424 103.499C337.424 105.603 339.184 107.309 341.355 107.309Z" fill="#002D40"/>
<path d="M351.84 107.309C354.011 107.309 355.772 105.603 355.772 103.499C355.772 101.395 354.011 99.6893 351.84 99.6893C349.668 99.6893 347.908 101.395 347.908 103.499C347.908 105.603 349.668 107.309 351.84 107.309Z" fill="#002D40"/>
<path d="M362.325 107.309C364.496 107.309 366.256 105.603 366.256 103.499C366.256 101.395 364.496 99.6893 362.325 99.6893C360.153 99.6893 358.393 101.395 358.393 103.499C358.393 105.603 360.153 107.309 362.325 107.309Z" fill="#002D40"/>
<path d="M156.564 165.092C155.48 165.092 154.598 165.946 154.598 166.997C154.598 167.509 154.802 167.983 155.172 168.333C155.546 168.703 156.036 168.902 156.564 168.902H359.704C360.788 168.902 361.669 168.047 361.669 166.997C361.669 166.485 361.465 166.011 361.095 165.661C360.721 165.29 360.232 165.092 359.704 165.092H156.564Z" fill="#D9ECF2"/>
<path d="M323.007 164.457V169.537H156.564C155.843 169.537 155.187 169.257 154.716 168.788C154.231 168.33 153.942 167.695 153.942 166.997C153.942 165.6 155.122 164.457 156.564 164.457H323.007V164.457Z" fill="#0093E1"/>
<path d="M356.427 154.932H330.215C327.325 154.932 324.973 152.654 324.973 149.853C324.973 147.051 327.325 144.773 330.215 144.773H356.427C359.318 144.773 361.669 147.051 361.669 149.853C361.669 152.654 359.318 154.932 356.427 154.932Z" fill="#D9ECF2"/>
<path d="M184.741 128.263H158.529C155.639 128.263 153.287 125.985 153.287 123.183C153.287 120.382 155.639 118.104 158.529 118.104H184.741C187.632 118.104 189.983 120.382 189.983 123.183C189.983 125.985 187.632 128.263 184.741 128.263Z" fill="#D9ECF2"/>
<path d="M156.564 222.24C155.48 222.24 154.598 223.094 154.598 224.145C154.598 224.657 154.802 225.131 155.172 225.48C155.546 225.851 156.036 226.05 156.564 226.05H359.704C360.788 226.05 361.669 225.195 361.669 224.145C361.669 223.633 361.465 223.159 361.095 222.809C360.721 222.438 360.232 222.24 359.704 222.24H156.564Z" fill="#D9ECF2"/>
<path d="M222.093 221.605V226.685H156.564C155.843 226.685 155.187 226.405 154.716 225.935C154.231 225.478 153.942 224.843 153.942 224.145C153.942 222.748 155.122 221.605 156.564 221.605H222.093V221.605Z" fill="#0093E1"/>
<path d="M356.427 212.08H330.215C327.325 212.08 324.973 209.802 324.973 207C324.973 204.199 327.325 201.921 330.215 201.921H356.427C359.318 201.921 361.669 204.199 361.669 207C361.669 209.802 359.318 212.08 356.427 212.08Z" fill="#D9ECF2"/>
</svg>
