<svg width="795" height="712" viewBox="0 0 795 712" fill="none" xmlns="http://www.w3.org/2000/svg">
<path d="M1079.12 603.774H340.129C324.325 603.774 311.467 592.306 311.467 578.21V498.881H1107.78V578.21C1107.78 592.306 1094.92 603.774 1079.12 603.774Z" fill="#F5F5F5"/>
<path d="M805.264 590.505H616.814V710.563H805.264V590.505Z" fill="#F5F5F5"/>
<path d="M816.6 695.398H605.479V710.563H816.6V695.398Z" fill="#F5F5F5"/>
<path d="M1107.07 532.371H311.467V129.077C311.467 119.404 320.291 111.534 331.136 111.534H1087.4C1098.25 111.534 1107.07 119.404 1107.07 129.077V532.371Z" fill="#002D40"/>
<path d="M711.039 126.067C714.169 126.067 716.707 123.804 716.707 121.012C716.707 118.22 714.169 115.957 711.039 115.957C707.909 115.957 705.372 118.22 705.372 121.012C705.372 123.804 707.909 126.067 711.039 126.067Z" fill="white"/>
<path d="M1087.94 129.859H329.887V510.255H1087.94V129.859Z" fill="#D9ECF2"/>
<path d="M346.795 351.225L338.628 376.718L371.294 378.539L369.253 348.493L346.795 351.225Z" fill="#FFB6B6"/>
<path d="M482.504 455.294C490.255 457.654 497.904 456 499.588 451.6C501.271 447.2 496.352 441.72 488.597 439.36C485.514 438.379 482.212 438.071 478.968 438.462L445.982 428.831L441.244 442.734L474.266 450.752C476.566 452.831 479.39 454.389 482.504 455.294Z" fill="#FFB6B6"/>
<path d="M373.045 371.065C373.045 371.065 352.597 393.005 364.426 402.083C376.256 411.161 429.083 444.767 429.083 444.767L449.677 447.627L454.944 429.872L408.441 399.137L373.045 371.065H373.045Z" fill="#0093E1"/>
<path d="M427.224 604.634L438.588 642.195L456.636 639.214L452.625 600.461L427.224 604.634Z" fill="#FFB6B6"/>
<path d="M441.262 639.81L434.577 641.003L429.229 657.1C429.229 657.1 437.919 660.081 437.919 666.043C437.919 672.006 441.261 676.179 454.631 675.583C468 674.987 469.337 675.583 469.337 670.813C469.337 666.043 459.31 641.003 459.31 641.003C459.31 641.003 459.978 630.867 451.957 631.463C443.935 632.06 441.261 639.81 441.261 639.81H441.262Z" fill="#002D40"/>
<path d="M366.116 604.05L366.892 642.948L385.211 643.973L391.893 605.514L366.116 604.05Z" fill="#FFB6B6"/>
<path d="M370.136 641.215L363.327 640.921L353.748 655.374C353.748 655.374 361.364 660.152 359.737 665.935C358.111 671.717 360.214 676.491 373.344 678.814C386.474 681.137 387.608 682.005 388.91 677.379C390.211 672.753 387.316 646.289 387.316 646.289C387.316 646.289 390.73 636.603 382.787 635.44C374.844 634.278 370.136 641.215 370.136 641.215Z" fill="#002D40"/>
<path d="M373.747 371.517L337.65 369.132L329.629 378.075C329.629 378.075 325.618 438.292 328.292 444.254C330.966 450.216 328.961 484.2 328.961 484.2L419.958 478.536L399.817 435.311L400.486 410.27L382.437 379.864L373.747 371.517L373.747 371.517Z" fill="#0093E1"/>
<path d="M332.971 471.68C332.971 471.68 318.265 490.758 323.613 500.894C328.961 511.029 365.234 569.88 365.234 569.88L360.555 624.731L392.641 622.346L397.989 563.321L375.753 515.203L379.763 509.837L413.186 546.206L425.219 609.404L457.305 605.826L439.925 513.414L419.613 477.796L332.971 471.68H332.971Z" fill="#002D40"/>
<path d="M329.829 335.005C336.674 335.005 342.222 330.056 342.222 323.952C342.222 317.847 336.674 312.898 329.829 312.898C322.985 312.898 317.437 317.847 317.437 323.952C317.437 330.056 322.985 335.005 329.829 335.005Z" fill="#002D40"/>
<path d="M358.449 364.93C373.355 364.93 385.438 354.152 385.438 340.858C385.438 327.563 373.355 316.786 358.449 316.786C343.544 316.786 331.46 327.563 331.46 340.858C331.46 354.152 343.544 364.93 358.449 364.93Z" fill="#FFB6B6"/>
<path d="M349.892 367.248C347.024 368.603 338.952 363.628 336.064 356.96C334.207 352.671 329.69 353.385 326.807 348.036C325.128 344.919 330.143 341.87 329.316 339.175C327.817 334.292 329.696 329.924 329.936 329.388C332.002 324.769 335.048 324.876 337.505 319.499C338.984 316.261 338.035 315.882 339.278 314.226C342.866 309.446 353.276 309.264 360.618 311.525C363.158 312.307 369.278 308.116 374.246 311.152C380.099 314.729 383.993 325.041 383.097 326.931C382.552 328.079 379.522 326.909 373.22 327.793C367.385 328.611 375.086 332.499 368.52 333.824C360.755 335.391 358.416 333.961 356.264 336.152C353.989 338.468 353.569 343.156 355.644 345.939C356.674 347.32 358.002 347.807 357.836 348.768C357.532 350.522 355.785 349.569 355.212 351.43C354.545 353.595 360.076 356.434 359.595 357.088C359.499 357.22 359.084 357.363 353.684 355.507C351.527 354.765 350.696 354.125 350.454 354.362C350.062 354.746 348.123 358.59 350.327 360.225C353.755 362.769 351.379 363.78 352.942 365.772C354.554 367.828 351.715 366.387 349.892 367.248V367.248Z" fill="#002D40"/>
<path d="M356.211 506.332C360.519 512.546 367.605 515.601 372.038 513.155C376.472 510.71 376.573 503.691 372.264 497.475C370.58 494.971 368.249 492.863 365.465 491.327L346.843 465.203L333.284 473.259L353.082 498.157C353.378 501.066 354.451 503.869 356.211 506.332Z" fill="#FFB6B6"/>
<path d="M331.634 379.267C331.634 379.267 300.217 384.633 302.891 398.346C305.565 412.059 322.442 467.94 322.442 467.94L336.314 481.815L353.025 471.083L338.987 421.002L331.634 379.267V379.267Z" fill="#0093E1"/>
<path d="M790.902 451.113H503.173C491.59 451.113 482.167 442.708 482.167 432.378V238.322C482.167 227.992 491.59 219.586 503.173 219.586H790.902C802.486 219.586 811.909 227.992 811.909 238.322V432.378C811.909 442.708 802.486 451.113 790.902 451.113H790.902Z" fill="white"/>
<path d="M790.902 451.113H503.173C491.59 451.113 482.167 442.708 482.167 432.378V238.322C482.167 227.992 491.59 219.586 503.173 219.586H790.902C802.486 219.586 811.909 227.992 811.909 238.322V432.378C811.909 442.708 802.486 451.113 790.902 451.113H790.902ZM503.173 222.715C493.525 222.715 485.675 229.717 485.675 238.322V432.378C485.675 440.983 493.525 447.985 503.173 447.985H790.902C800.551 447.985 808.401 440.983 808.401 432.378V238.322C808.401 229.717 800.551 222.715 790.902 222.715H503.173Z" fill="#002D40"/>
<path d="M759.29 243.052C762.196 243.052 764.552 240.951 764.552 238.359C764.552 235.767 762.196 233.666 759.29 233.666C756.384 233.666 754.029 235.767 754.029 238.359C754.029 240.951 756.384 243.052 759.29 243.052Z" fill="#002D40"/>
<path d="M773.322 243.052C776.228 243.052 778.584 240.951 778.584 238.359C778.584 235.767 776.228 233.666 773.322 233.666C770.416 233.666 768.06 235.767 768.06 238.359C768.06 240.951 770.416 243.052 773.322 243.052Z" fill="#002D40"/>
<path d="M787.353 243.052C790.259 243.052 792.615 240.951 792.615 238.359C792.615 235.767 790.259 233.666 787.353 233.666C784.447 233.666 782.092 235.767 782.092 238.359C782.092 240.951 784.447 243.052 787.353 243.052Z" fill="#002D40"/>
<path d="M511.984 314.231C510.533 314.231 509.353 315.284 509.353 316.578C509.353 317.208 509.626 317.792 510.122 318.223C510.622 318.68 511.277 318.924 511.984 318.924H783.846C785.296 318.924 786.477 317.871 786.477 316.578C786.477 315.947 786.203 315.363 785.708 314.932C785.207 314.475 784.552 314.231 783.846 314.231H511.984Z" fill="#D9ECF2"/>
<path d="M734.735 313.449V319.706H511.984C511.019 319.706 510.142 319.362 509.511 318.783C508.862 318.22 508.476 317.438 508.476 316.577C508.476 314.857 510.055 313.449 511.984 313.449H734.735Z" fill="#0093E1"/>
<path d="M779.461 301.716H744.382C740.513 301.716 737.366 298.91 737.366 295.458C737.366 292.007 740.513 289.201 744.382 289.201H779.461C783.329 289.201 786.476 292.007 786.476 295.458C786.476 298.91 783.329 301.716 779.461 301.716Z" fill="#D9ECF2"/>
<path d="M549.694 268.864H514.615C510.746 268.864 507.599 266.058 507.599 262.607C507.599 259.156 510.746 256.349 514.615 256.349H549.694C553.562 256.349 556.709 259.156 556.709 262.607C556.709 266.058 553.562 268.864 549.694 268.864Z" fill="#D9ECF2"/>
<path d="M511.984 384.628C510.533 384.628 509.353 385.68 509.353 386.974C509.353 387.605 509.626 388.189 510.122 388.62C510.622 389.076 511.277 389.321 511.984 389.321H783.846C785.296 389.321 786.477 388.268 786.477 386.974C786.477 386.343 786.203 385.76 785.708 385.329C785.207 384.872 784.552 384.628 783.846 384.628H511.984Z" fill="#D9ECF2"/>
<path d="M599.681 383.845V390.103H511.984C511.019 390.103 510.142 389.759 509.511 389.18C508.862 388.617 508.476 387.835 508.476 386.974C508.476 385.253 510.055 383.845 511.984 383.845H599.681Z" fill="#0093E1"/>
<path d="M779.461 372.113H744.382C740.513 372.113 737.366 369.306 737.366 365.855C737.366 362.404 740.513 359.598 744.382 359.598H779.461C783.329 359.598 786.476 362.404 786.476 365.855C786.476 369.306 783.329 372.113 779.461 372.113Z" fill="#D9ECF2"/>
</svg>
